<mxfile host="65bd71144e">
    <diagram id="3sMYhFay5E5r7XJijLnS" name="Page-1">
        <mxGraphModel dx="1379" dy="914" grid="1" gridSize="10" guides="1" tooltips="1" connect="1" arrows="1" fold="1" page="1" pageScale="1" pageWidth="850" pageHeight="1100" math="0" shadow="0">
            <root>
                <mxCell id="0"/>
                <mxCell id="1" parent="0"/>
                <mxCell id="5" value="Sta op" style="rounded=0;whiteSpace=wrap;html=1;align=left;" parent="1" vertex="1">
                    <mxGeometry x="280" y="240" width="320" height="40" as="geometry"/>
                </mxCell>
                <mxCell id="6" value="" style="rounded=0;whiteSpace=wrap;html=1;align=left;" parent="1" vertex="1">
                    <mxGeometry x="280" y="280" width="320" height="70" as="geometry"/>
                </mxCell>
                <mxCell id="9" value="deurrichting := 300" style="rounded=0;whiteSpace=wrap;html=1;align=left;" parent="1" vertex="1">
                    <mxGeometry x="280" y="120" width="320" height="40" as="geometry"/>
                </mxCell>
                <mxCell id="10" value="kijkhoek := 0" style="rounded=0;whiteSpace=wrap;html=1;align=left;" parent="1" vertex="1">
                    <mxGeometry x="280" y="80" width="320" height="40" as="geometry"/>
                </mxCell>
                <mxCell id="11" value="afstand := 3" style="rounded=0;whiteSpace=wrap;html=1;align=left;" parent="1" vertex="1">
                    <mxGeometry x="280" y="160" width="320" height="40" as="geometry"/>
                </mxCell>
                <UserObject label="&lt;span style=&quot;&quot;&gt;Zolang kijkhoek != deurrichting&lt;/span&gt;" placeholders="1" name="Variable" id="12">
                    <mxCell style="text;html=1;strokeColor=none;fillColor=none;align=left;verticalAlign=middle;whiteSpace=wrap;overflow=hidden;fontSize=12;" parent="1" vertex="1">
                        <mxGeometry x="280" y="280" width="180" height="20" as="geometry"/>
                    </mxCell>
                </UserObject>
                <mxCell id="13" value="kijkhoek := kijkhoek + 10" style="rounded=0;whiteSpace=wrap;html=1;align=left;" parent="1" vertex="1">
                    <mxGeometry x="310" y="310" width="290" height="40" as="geometry"/>
                </mxCell>
                <mxCell id="14" value="teller := 0" style="rounded=0;whiteSpace=wrap;html=1;align=left;" parent="1" vertex="1">
                    <mxGeometry x="280" y="200" width="320" height="40" as="geometry"/>
                </mxCell>
                <mxCell id="16" value="" style="rounded=0;whiteSpace=wrap;html=1;align=left;" parent="1" vertex="1">
                    <mxGeometry x="280" y="350" width="320" height="70" as="geometry"/>
                </mxCell>
                <UserObject label="&lt;span style=&quot;&quot;&gt;Zolang teller &amp;lt; afstand&lt;/span&gt;" placeholders="1" name="Variable" id="17">
                    <mxCell style="text;html=1;strokeColor=none;fillColor=none;align=left;verticalAlign=middle;whiteSpace=wrap;overflow=hidden;fontSize=12;" parent="1" vertex="1">
                        <mxGeometry x="280" y="350" width="180" height="20" as="geometry"/>
                    </mxCell>
                </UserObject>
                <mxCell id="18" value="teller := teller + 1" style="rounded=0;whiteSpace=wrap;html=1;align=left;" parent="1" vertex="1">
                    <mxGeometry x="310" y="380" width="290" height="40" as="geometry"/>
                </mxCell>
            </root>
        </mxGraphModel>
    </diagram>
</mxfile>